<svg width="960" height="640" viewBox="0 0 960 640" fill="none" xmlns="http://www.w3.org/2000/svg">
<path d="M558.608 481.192C552.422 481.192 547.4 486.206 547.4 492.397C547.4 498.581 552.422 503.603 558.608 503.603C564.794 503.603 569.808 498.581 569.808 492.397C569.808 486.206 564.795 481.192 558.608 481.192ZM558.608 501.198C557.452 501.199 556.307 500.972 555.239 500.53C554.171 500.088 553.201 499.439 552.383 498.622C551.566 497.805 550.918 496.834 550.476 495.766C550.034 494.698 549.807 493.553 549.808 492.397C549.807 491.241 550.035 490.097 550.477 489.029C550.919 487.962 551.567 486.992 552.384 486.175C553.202 485.358 554.172 484.71 555.24 484.269C556.308 483.827 557.452 483.601 558.608 483.602C563.471 483.602 567.408 487.535 567.408 492.397C567.409 493.553 567.181 494.698 566.74 495.766C566.298 496.834 565.649 497.804 564.832 498.621C564.015 499.439 563.044 500.087 561.976 500.529C560.908 500.971 559.764 501.199 558.608 501.198ZM563.213 489.799C563.212 488.792 562.811 487.826 562.098 487.114C561.385 486.402 560.419 486.002 559.411 486.003H554.011V498.794H556.411V493.599H558.134L560.559 498.794H563.213L560.681 493.377C561.42 493.114 562.06 492.629 562.513 491.989C562.966 491.348 563.211 490.584 563.213 489.799ZM559.411 491.198H556.411V488.399H559.411C560.181 488.399 560.813 489.026 560.813 489.8C560.811 490.171 560.663 490.526 560.4 490.788C560.138 491.05 559.782 491.198 559.411 491.198Z" fill="#041E42"/>
<path d="M660.167 183.001L675.282 198.193L699.072 211.713L704.271 235.088L720.593 255.325L731.977 264.077L765.255 280.148L782.121 321.435C782.121 321.435 769.547 333.751 757.819 357.607C757.819 357.607 741.352 356.601 716.672 370.361H695.997L692.197 368.306C636.351 440.359 556.776 477.996 447.431 487.303C447.431 487.303 484.531 470.97 504.637 460.355L461.26 470.12C461.26 470.12 578.815 419.132 604.5 318.421C604.5 318.421 543.86 329.546 500.694 343.844C457.973 357.994 446.325 389.021 446.325 389.021C461.547 387.607 469.397 381.029 474.035 381.029C479.573 381.029 481.663 386.749 480.205 389.999C482.755 388.9 485.888 387.067 488.205 387.067C490.999 387.067 494.882 389.443 494.882 393.174C494.882 402.482 474.139 419.311 458.825 424.259C458.825 429.945 456.584 444.541 421.75 444.541C391.867 444.541 372.824 427.212 372.752 427.146L296.136 413.322C296.136 413.322 318.014 382.493 318.014 350.069C318.014 262.172 177.975 244.061 177.83 244.042L197.167 218.614L394.809 179.136L384.464 170.238C384.464 170.238 414.253 165.86 447.497 168.606L570.557 144.029L660.167 183.001ZM662.849 323.801C623.885 323.801 624.418 406.569 487.054 476.697C604.043 459.794 692.381 380.218 692.382 347.564C692.382 335.434 672.307 323.801 662.849 323.801ZM483.226 174.512C503.46 179.386 520.209 189.949 520.209 189.949C520.239 190.018 526.621 204.783 518.263 221.217C500.266 221.973 486.146 228.486 475.398 236.593L475.403 236.592L475.401 236.593C473.954 237.685 472.568 238.807 471.242 239.947C457.623 251.655 450.357 265.332 448.16 269.929C448.003 270.258 447.871 270.54 447.766 270.771C447.547 271.251 447.435 271.514 447.43 271.525L434.138 274.634L449.511 238.655H449.508L455.061 225.657C420.659 230.705 405.132 201.472 405.097 201.406L402.461 192.46L202.569 237.188C224.135 238.679 247.912 245.54 269.571 256.583C274.726 239.364 287.493 226.003 287.545 225.949L397.345 201.376C397.345 201.376 401.691 215.494 420.419 226.817L420.091 230.284C411.395 232.043 397.755 237.637 384.739 247.848H384.74C366.239 262.355 348.992 286.183 348.992 321.592C348.992 329.61 350.196 336.97 351.515 342.63C351.563 342.835 351.609 343.039 351.657 343.24C351.815 343.899 351.975 344.532 352.133 345.14C352.148 345.197 352.162 345.255 352.177 345.312C352.226 345.499 352.276 345.682 352.324 345.863C352.469 346.403 352.61 346.92 352.751 347.412C352.951 348.114 353.148 348.765 353.333 349.364C353.384 349.529 353.434 349.691 353.483 349.848C353.867 351.061 354.203 352.027 354.449 352.708C354.715 353.444 354.876 353.845 354.883 353.863L354.885 353.868C354.885 353.868 347.552 343.898 343.221 326.912L343.22 326.914C341.151 318.813 340.107 310.485 340.11 302.124C340.11 297.237 340.505 292.418 341.198 287.723C341.452 286.004 341.747 284.303 342.076 282.621C344.053 272.508 347.3 263.094 350.794 254.983V254.981C358.124 237.965 366.53 226.673 366.53 226.673C366.53 226.673 342.56 236.385 326.089 261.232L326.086 261.233C320.459 269.713 316.32 279.09 313.846 288.961C319.834 295.299 325.048 302.104 329.257 309.312C329.584 309.872 329.905 310.436 330.22 311.002C330.936 312.288 331.621 313.586 332.272 314.896C332.688 315.732 333.091 316.572 333.479 317.417C334.174 318.933 334.823 320.465 335.427 322.011C336.477 324.698 337.388 327.429 338.146 330.204L338.534 331.676C340.084 337.757 340.869 344.007 340.872 350.282C340.872 380.637 328.211 399.76 328.156 399.843L370.716 408.477C370.716 408.477 386.809 431.899 421.366 431.899C432.296 431.899 446.66 430.689 446.66 423.716C446.66 418.45 433.726 411.303 433.726 396.047C433.726 371.287 464.832 345.582 498.21 334.584C537.214 321.736 596.798 306.772 626.773 306.772C711.789 306.773 708.986 362.897 708.986 362.897L713.111 362.706C732.033 352.069 748.786 350.044 753.671 349.672C753.988 349.643 754.306 349.623 754.624 349.607C754.784 349.599 754.944 349.591 755.104 349.586C755.128 349.542 758.399 343.443 763.215 336.109C766.115 331.694 769.575 326.83 773.225 322.572C773.225 322.572 770.961 317.826 764.987 312.185C764.196 311.437 763.339 310.675 762.414 309.905C761.868 309.451 761.298 308.994 760.703 308.536C760.386 308.292 760.063 308.048 759.731 307.804C758.837 307.144 757.89 306.486 756.89 305.834C755.124 304.684 753.19 303.557 751.077 302.478C748.822 301.325 746.365 300.228 743.688 299.228C743.348 299.101 743.005 298.976 742.658 298.853C735.469 296.286 726.758 294.405 716.274 293.883L728.387 289.614L733.357 287.863C733.472 287.935 753.625 300.629 762.649 284.249L731.723 269.694C723.07 274.702 714.581 277.325 706.728 278.454V278.457C683.536 281.785 665.88 272.044 665.88 272.044H665.879C664.076 272.044 662.327 272.071 660.628 272.125C644.203 272.646 632.461 275.664 622.248 280.761H622.245C613.059 285.347 605.11 291.616 596.111 299.283L623.121 269.569L623.313 268.438L627.312 244.888C627.438 245.189 635.974 265.499 659.186 265.499C670.501 265.499 679.152 259.228 679.152 259.228C704.474 278.367 727.673 267.835 727.725 267.812L719.033 260.6L710.732 265.015L715.892 257.271L712.721 253.667L701.51 259.45L708.529 248.805L706.093 245.994L696.629 250.16L702.052 240.924L698.238 235.066C694.681 250.673 680.763 252.542 668.801 251.601L668.18 244.699C665.496 246.379 662.393 247.268 659.227 247.264C649.891 247.263 642.329 239.698 642.329 230.373C642.329 225.028 615.994 201.478 615.994 201.478L650.073 212C678.628 220.825 677.382 234.99 677.705 242.673C682.515 244.793 693.345 246.346 698.238 235.066L694.634 216.312L671.951 205.312L656.371 190.735L569.113 155.46L483.226 174.512ZM488.23 393.719C460.409 407.719 440.623 398.892 440.623 398.892C443.363 411.274 451.641 414.773 452.435 419.404C452.435 419.404 473.947 414.98 488.23 393.719ZM582.913 170.463C582.913 170.463 548.155 183.817 548.155 221.498C548.155 226.856 548.947 231.724 550.188 236.113L550.202 236.114H550.188C551.054 239.192 552.149 242.023 553.363 244.602C553.516 244.925 553.67 245.245 553.826 245.561C555.298 248.537 556.919 251.156 558.515 253.403C558.762 253.752 559.009 254.091 559.255 254.422C561.567 257.534 563.765 259.848 565.297 261.318C565.793 261.795 566.221 262.181 566.56 262.479C567.105 262.958 567.418 263.206 567.424 263.211L552.91 279.173L535.8 297.996C529.419 296.064 522.68 294.981 515.697 294.821C515.287 285.302 519.025 274.47 527.402 264.077C516.312 272.438 509.616 283.161 508.216 295.044C503.405 295.417 498.642 296.253 493.992 297.541C491.591 289.627 491.856 279.879 495.51 269.282C489.052 279.129 486.392 289.561 487.725 299.562C483.149 301.287 478.752 303.454 474.597 306.031C470.56 299.887 468.089 291.692 467.905 281.923C465.573 291.931 466.22 301.267 469.754 309.292C455.164 320.164 448.57 333.322 448.538 333.386C402.072 325.012 373.947 363.889 372.958 391.173C370.012 372.241 376.068 338.758 413.488 322.824L425.908 293.795C426.658 292.011 427.673 290.35 428.917 288.868L428.924 288.866C431.846 285.373 436.106 282.933 442.27 281.333C457.122 277.477 472.134 271.379 485.468 263.607C485.904 263.353 486.339 263.097 486.771 262.839C489.748 261.065 492.637 259.207 495.417 257.271C495.544 257.183 495.67 257.094 495.796 257.006C505.005 250.546 512.999 243.234 519.002 235.305H518.932L518.998 235.303C526.317 225.638 530.676 215.061 530.676 203.996C530.676 184.981 520.973 173.816 520.901 173.734L568.203 163.245L582.913 170.463ZM328.439 220.08C297.069 231.805 283.771 257.411 281.176 263.025C285.343 265.544 289.403 268.236 293.343 271.097C293.344 271.096 293.345 271.095 293.347 271.095C296.805 273.603 300.16 276.25 303.403 279.03C304.045 275.006 304.882 271.015 305.914 267.072H305.916C313.303 238.821 328.439 220.08 328.439 220.08ZM654.946 218.865C654.946 218.865 649.015 222.182 649.015 229.495C649.015 236.812 655.158 242.052 661.554 242.052L661.884 242.047C665.269 241.949 667.732 240.381 667.732 240.381C667.511 239.173 667.237 237.976 666.911 236.793C666.044 237.338 664.808 237.882 663.348 237.882C659.505 237.882 657.132 234.93 657.132 231.674C657.132 228.908 659.031 226.406 661.742 225.699C658.365 220.921 654.985 218.888 654.946 218.865ZM689.208 224.085L684.967 240.495C684.967 228.075 677.617 220.95 655.88 208.156L689.208 224.085ZM435.831 174.546C415.622 173.697 400.854 175.327 400.779 175.335L405.764 179.637L411.289 198.55C411.289 198.55 423.829 219.891 446.176 219.892L469.389 218.29L488.457 198.365L514.497 194.359C504.847 188.51 493.961 184.299 482.86 181.305L461.089 211.71L474.925 179.372C470.928 178.504 466.906 177.757 462.863 177.134L444.104 203.275L455.711 176.15C450.987 175.576 446.247 175.14 441.498 174.842L427.148 194.846L435.831 174.546Z" fill="#041E42"/>
</svg>
